<svg width="96" height="96" viewBox="0 0 96 96" fill="none" xmlns="http://www.w3.org/2000/svg">
<rect width="96" height="96" rx="48" fill="#D9D9D9"/>
<path d="M15.8329 65V33H28.4579C30.8746 33 32.9371 33.4323 34.6454 34.2969C36.3641 35.151 37.6714 36.3646 38.5673 37.9375C39.4735 39.5 39.9266 41.3385 39.9266 43.4531C39.9266 45.5781 39.4683 47.4062 38.5516 48.9375C37.635 50.4583 36.3068 51.625 34.5673 52.4375C32.8381 53.25 30.7443 53.6562 28.286 53.6562H19.8329V48.2187H27.1923C28.4839 48.2187 29.5568 48.0417 30.411 47.6875C31.2652 47.3333 31.9006 46.8021 32.3173 46.0938C32.7443 45.3854 32.9579 44.5052 32.9579 43.4531C32.9579 42.3906 32.7443 41.4948 32.3173 40.7656C31.9006 40.0365 31.26 39.4844 30.3954 39.1094C29.5412 38.724 28.4631 38.5312 27.161 38.5312H22.5985V65H15.8329ZM33.1141 50.4375L41.0673 65H33.5985L25.8173 50.4375H33.1141ZM46.4679 33H54.8116L63.6241 54.5H63.9991L72.8116 33H81.1554V65H74.5929V44.1719H74.3273L66.046 64.8437H61.5773L53.296 44.0937H53.0304V65H46.4679V33Z" fill="#131219"/>
</svg>
